<?xml version="1.0" encoding="iso-8859-1"?>
<!-- Generator: Adobe Illustrator 19.1.0, SVG Export Plug-In . SVG Version: 6.00 Build 0)  -->
<svg version="1.1" id="Capa_1" xmlns="http://www.w3.org/2000/svg" xmlns:xlink="http://www.w3.org/1999/xlink" x="0px" y="0px"
	 viewBox="0 0 48 48" style="enable-background:new 0 0 48 48;" xml:space="preserve">
<g id="play_1_">
	<g>
		<path d="M24,0C10.745,0,0,10.745,0,24c0,13.255,10.745,24,24,24c13.255,0,24-10.745,24-24C48,10.745,37.255,0,24,0z M24,44
			C12.972,44,4,35.028,4,24C4,12.972,12.972,4,24,4c11.028,0,20,8.972,20,20C44,35.028,35.028,44,24,44z M16.5,36.214L35.5,24
			l-19-12.214V36.214z M20.5,19.112L28.103,24L20.5,28.888V19.112z"/>
	</g>
</g>
<g>
</g>
<g>
</g>
<g>
</g>
<g>
</g>
<g>
</g>
<g>
</g>
<g>
</g>
<g>
</g>
<g>
</g>
<g>
</g>
<g>
</g>
<g>
</g>
<g>
</g>
<g>
</g>
<g>
</g>
</svg>
